solid 
facet normal 0.032858 0.111904 0.993176
outer loop
vertex 0 1.736553311 7.608337402
vertex 0 0 7.803999901
vertex 0.9388515949 1.460881591 7.608337402

endloop
endfacet
facet normal 0.08814174682 0.0763752684 0.993175745
outer loop
vertex 0.9388515949 1.460881591 7.608337402
vertex 0 0 7.803999901
vertex 1.579624534 0.7213903069 7.608337402

endloop
endfacet
facet normal 0.1154411361 0.01659793966 0.9931756854
outer loop
vertex 1.579624534 0.7213903069 7.608337402
vertex 0 0 7.803999901
vertex 1.718877792 -0.2471373081 7.608337402

endloop
endfacet
facet normal 0.1060887799 -0.04844912887 0.9931756854
outer loop
vertex 1.718877792 -0.2471373081 7.608337402
vertex 0 0 7.803999901
vertex 1.312399507 -1.137200594 7.608337402

endloop
endfacet
facet normal 0.06305398792 -0.09811390191 0.9931755662
outer loop
vertex 1.312399507 -1.137200594 7.608337402
vertex 0 0 7.803999901
vertex 0.4892436266 -1.666210771 7.608337402

endloop
endfacet
facet normal 0 -0.116628252 0.9931756854
outer loop
vertex 0.4892436266 -1.666210771 7.608337402
vertex 0 0 7.803999901
vertex -0.4892436266 -1.666210771 7.608337402

endloop
endfacet
facet normal -0.06305398792 -0.09811390191 0.9931755662
outer loop
vertex -0.4892436266 -1.666210771 7.608337402
vertex 0 0 7.803999901
vertex -1.312399507 -1.137200594 7.608337402

endloop
endfacet
facet normal -0.1060887799 -0.04844912887 0.9931756854
outer loop
vertex -1.312399507 -1.137200594 7.608337402
vertex 0 0 7.803999901
vertex -1.718877792 -0.2471373081 7.608337402

endloop
endfacet
facet normal -0.1154411361 0.01659793966 0.9931756854
outer loop
vertex -1.718877792 -0.2471373081 7.608337402
vertex 0 0 7.803999901
vertex -1.579624534 0.7213903069 7.608337402

endloop
endfacet
facet normal -0.08814174682 0.0763752684 0.993175745
outer loop
vertex -1.579624534 0.7213903069 7.608337402
vertex 0 0 7.803999901
vertex -0.9388515949 1.460881591 7.608337402

endloop
endfacet
facet normal -0.0328579843 0.1119039878 0.993175745
outer loop
vertex -0.9388515949 1.460881591 7.608337402
vertex 0 0 7.803999901
vertex 0 1.736553311 7.608337402

endloop
endfacet
facet normal 0.09652587026 0.3287369013 0.9394758344
outer loop
vertex 0 1.736553311 7.608337402
vertex 0.9388515949 1.460881591 7.608337402
vertex 0 3.386028767 7.031160831

endloop
endfacet
facet normal 0.09652584791 0.3287369311 0.9394757748
outer loop
vertex 0 3.386028767 7.031160831
vertex 0.9388515949 1.460881591 7.608337402
vertex 1.830625296 2.848508596 7.031160831

endloop
endfacet
facet normal 0.2589312792 0.2243652642 0.9394758344
outer loop
vertex 0.9388515949 1.460881591 7.608337402
vertex 1.579624534 0.7213903069 7.608337402
vertex 1.830625296 2.848508596 7.031160831

endloop
endfacet
facet normal 0.258931309 0.2243652493 0.9394757748
outer loop
vertex 1.830625296 2.848508596 7.031160831
vertex 1.579624534 0.7213903069 7.608337402
vertex 3.080039978 1.406607151 7.031160831

endloop
endfacet
facet normal 0.339127928 0.04875923693 0.9394758344
outer loop
vertex 1.579624534 0.7213903069 7.608337402
vertex 1.718877792 -0.2471373081 7.608337402
vertex 3.080039978 1.406607151 7.031160831

endloop
endfacet
facet normal 0.339127928 0.04875922203 0.9394757748
outer loop
vertex 3.080039978 1.406607151 7.031160831
vertex 1.718877792 -0.2471373081 7.608337402
vertex 3.351563692 -0.4818821251 7.031160831

endloop
endfacet
facet normal 0.3116538227 -0.1423275322 0.9394758344
outer loop
vertex 1.718877792 -0.2471373081 7.608337402
vertex 1.312399507 -1.137200594 7.608337402
vertex 3.351563692 -0.4818821251 7.031160831

endloop
endfacet
facet normal 0.3116537929 -0.1423274875 0.9394757748
outer loop
vertex 3.351563692 -0.4818821251 7.031160831
vertex 1.312399507 -1.137200594 7.608337402
vertex 2.558989763 -2.217377186 7.031160831

endloop
endfacet
facet normal 0.1852317899 -0.2882263064 0.9394757748
outer loop
vertex 1.312399507 -1.137200594 7.608337402
vertex 0.4892436266 -1.666210771 7.608337402
vertex 2.558989763 -2.217377186 7.031160831

endloop
endfacet
facet normal 0.1852317899 -0.2882263064 0.9394757748
outer loop
vertex 2.558989763 -2.217377186 7.031160831
vertex 0.4892436266 -1.666210771 7.608337402
vertex 0.9539545178 -3.248870611 7.031160831

endloop
endfacet
facet normal 0 -0.3426152766 0.9394758344
outer loop
vertex 0.4892436266 -1.666210771 7.608337402
vertex -0.4892436266 -1.666210771 7.608337402
vertex 0.9539545178 -3.248870611 7.031160831

endloop
endfacet
facet normal 0 -0.3426152468 0.9394757748
outer loop
vertex 0.9539545178 -3.248870611 7.031160831
vertex -0.4892436266 -1.666210771 7.608337402
vertex -0.9539545178 -3.248870611 7.031160831

endloop
endfacet
facet normal -0.1852318048 -0.2882263064 0.9394758344
outer loop
vertex -0.4892436266 -1.666210771 7.608337402
vertex -1.312399507 -1.137200594 7.608337402
vertex -0.9539545178 -3.248870611 7.031160831

endloop
endfacet
facet normal -0.1852317899 -0.2882263064 0.9394757748
outer loop
vertex -0.9539545178 -3.248870611 7.031160831
vertex -1.312399507 -1.137200594 7.608337402
vertex -2.558989763 -2.217377186 7.031160831

endloop
endfacet
facet normal -0.3116537631 -0.1423275024 0.9394757748
outer loop
vertex -1.312399507 -1.137200594 7.608337402
vertex -1.718877792 -0.2471373081 7.608337402
vertex -2.558989763 -2.217377186 7.031160831

endloop
endfacet
facet normal -0.3116537929 -0.1423275173 0.9394757748
outer loop
vertex -2.558989763 -2.217377186 7.031160831
vertex -1.718877792 -0.2471373081 7.608337402
vertex -3.351563692 -0.4818821251 7.031160831

endloop
endfacet
facet normal -0.3391279578 0.04875924438 0.9394758344
outer loop
vertex -1.718877792 -0.2471373081 7.608337402
vertex -1.579624534 0.7213903069 7.608337402
vertex -3.351563692 -0.4818821251 7.031160831

endloop
endfacet
facet normal -0.3391278982 0.04875921831 0.9394757748
outer loop
vertex -3.351563692 -0.4818821251 7.031160831
vertex -1.579624534 0.7213903069 7.608337402
vertex -3.080039978 1.406607151 7.031160831

endloop
endfacet
facet normal -0.258931309 0.2243653089 0.9394758344
outer loop
vertex -1.579624534 0.7213903069 7.608337402
vertex -0.9388515949 1.460881591 7.608337402
vertex -3.080039978 1.406607151 7.031160831

endloop
endfacet
facet normal -0.258931309 0.2243652493 0.9394757748
outer loop
vertex -3.080039978 1.406607151 7.031160831
vertex -0.9388515949 1.460881591 7.608337402
vertex -1.830625296 2.848508596 7.031160831

endloop
endfacet
facet normal -0.09652587026 0.3287369013 0.9394757748
outer loop
vertex -0.9388515949 1.460881591 7.608337402
vertex 0 1.736553311 7.608337402
vertex -1.830625296 2.848508596 7.031160831

endloop
endfacet
facet normal -0.09652587026 0.3287368715 0.9394758344
outer loop
vertex -1.830625296 2.848508596 7.031160831
vertex 0 1.736553311 7.608337402
vertex 0 3.386028767 7.031160831

endloop
endfacet
facet normal 0.1543467045 0.5256565213 0.8365777135
outer loop
vertex 0 3.386028767 7.031160831
vertex 1.830625296 2.848508596 7.031160831
vertex 0 4.86571455 6.101412773

endloop
endfacet
facet normal 0.1543467194 0.5256565809 0.8365777135
outer loop
vertex 0 4.86571455 6.101412773
vertex 1.830625296 2.848508596 7.031160831
vertex 2.63060379 4.093299389 6.101412773

endloop
endfacet
facet normal 0.4140360951 0.3587643206 0.8365777135
outer loop
vertex 1.830625296 2.848508596 7.031160831
vertex 3.080039978 1.406607151 7.031160831
vertex 2.63060379 4.093299389 6.101412773

endloop
endfacet
facet normal 0.4140360951 0.3587643504 0.8365777731
outer loop
vertex 2.63060379 4.093299389 6.101412773
vertex 3.080039978 1.406607151 7.031160831
vertex 4.426009655 2.021290779 6.101412773

endloop
endfacet
facet normal 0.5422718525 0.07796691358 0.8365777135
outer loop
vertex 3.080039978 1.406607151 7.031160831
vertex 3.351563692 -0.4818821251 7.031160831
vertex 4.426009655 2.021290779 6.101412773

endloop
endfacet
facet normal 0.5422719717 0.07796687633 0.8365777135
outer loop
vertex 4.426009655 2.021290779 6.101412773
vertex 3.351563692 -0.4818821251 7.031160831
vertex 4.816188335 -0.6924633384 6.101412773

endloop
endfacet
facet normal 0.4983403385 -0.227584362 0.8365777135
outer loop
vertex 3.351563692 -0.4818821251 7.031160831
vertex 2.558989763 -2.217377186 7.031160831
vertex 4.816188335 -0.6924633384 6.101412773

endloop
endfacet
facet normal 0.4983403385 -0.2275843471 0.8365777135
outer loop
vertex 4.816188335 -0.6924633384 6.101412773
vertex 2.558989763 -2.217377186 7.031160831
vertex 3.677261591 -3.186365366 6.101412773

endloop
endfacet
facet normal 0.2961890996 -0.4608792961 0.8365777135
outer loop
vertex 2.558989763 -2.217377186 7.031160831
vertex 0.9539545178 -3.248870611 7.031160831
vertex 3.677261591 -3.186365366 6.101412773

endloop
endfacet
facet normal 0.2961891294 -0.4608792961 0.8365777731
outer loop
vertex 3.677261591 -3.186365366 6.101412773
vertex 0.9539545178 -3.248870611 7.031160831
vertex 1.370830178 -4.668618679 6.101412773

endloop
endfacet
facet normal 0 -0.5478482246 0.8365777135
outer loop
vertex 0.9539545178 -3.248870611 7.031160831
vertex -0.9539545178 -3.248870611 7.031160831
vertex 1.370830178 -4.668618679 6.101412773

endloop
endfacet
facet normal 0 -0.5478482842 0.8365777135
outer loop
vertex 1.370830178 -4.668618679 6.101412773
vertex -0.9539545178 -3.248870611 7.031160831
vertex -1.370830178 -4.668618679 6.101412773

endloop
endfacet
facet normal -0.2961890996 -0.4608792961 0.8365777135
outer loop
vertex -0.9539545178 -3.248870611 7.031160831
vertex -2.558989763 -2.217377186 7.031160831
vertex -1.370830178 -4.668618679 6.101412773

endloop
endfacet
facet normal -0.2961890996 -0.4608792961 0.8365777135
outer loop
vertex -1.370830178 -4.668618679 6.101412773
vertex -2.558989763 -2.217377186 7.031160831
vertex -3.677261591 -3.186365366 6.101412773

endloop
endfacet
facet normal -0.4983403385 -0.227584362 0.8365777135
outer loop
vertex -2.558989763 -2.217377186 7.031160831
vertex -3.351563692 -0.4818821251 7.031160831
vertex -3.677261591 -3.186365366 6.101412773

endloop
endfacet
facet normal -0.4983403385 -0.2275843769 0.8365777731
outer loop
vertex -3.677261591 -3.186365366 6.101412773
vertex -3.351563692 -0.4818821251 7.031160831
vertex -4.816188335 -0.6924633384 6.101412773

endloop
endfacet
facet normal -0.5422719717 0.07796692848 0.8365777135
outer loop
vertex -3.351563692 -0.4818821251 7.031160831
vertex -3.080039978 1.406607151 7.031160831
vertex -4.816188335 -0.6924633384 6.101412773

endloop
endfacet
facet normal -0.5422719717 0.07796687633 0.8365777731
outer loop
vertex -4.816188335 -0.6924633384 6.101412773
vertex -3.080039978 1.406607151 7.031160831
vertex -4.426009655 2.021290779 6.101412773

endloop
endfacet
facet normal -0.4140360653 0.3587642908 0.8365777135
outer loop
vertex -3.080039978 1.406607151 7.031160831
vertex -1.830625296 2.848508596 7.031160831
vertex -4.426009655 2.021290779 6.101412773

endloop
endfacet
facet normal -0.4140360951 0.3587643504 0.8365777731
outer loop
vertex -4.426009655 2.021290779 6.101412773
vertex -1.830625296 2.848508596 7.031160831
vertex -2.63060379 4.093299389 6.101412773

endloop
endfacet
facet normal -0.1543467194 0.5256565809 0.8365777135
outer loop
vertex -1.830625296 2.848508596 7.031160831
vertex 0 3.386028767 7.031160831
vertex -2.63060379 4.093299389 6.101412773

endloop
endfacet
facet normal -0.1543467194 0.5256565809 0.8365777135
outer loop
vertex -2.63060379 4.093299389 6.101412773
vertex 0 3.386028767 7.031160831
vertex 0 4.86571455 6.101412773

endloop
endfacet
facet normal 0.2032898366 0.6923414469 0.6923414469
outer loop
vertex 0 4.86571455 6.101412773
vertex 2.63060379 4.093299389 6.101412773
vertex 0 6.101412773 4.86571455

endloop
endfacet
facet normal 0.2032898217 0.6923414469 0.6923415065
outer loop
vertex 0 6.101412773 4.86571455
vertex 2.63060379 4.093299389 6.101412773
vertex 3.298672915 5.132834911 4.86571455

endloop
endfacet
facet normal 0.5453261733 0.4725278616 0.6923414469
outer loop
vertex 2.63060379 4.093299389 6.101412773
vertex 4.426009655 2.021290779 6.101412773
vertex 3.298672915 5.132834911 4.86571455

endloop
endfacet
facet normal 0.5453262329 0.4725278616 0.6923413873
outer loop
vertex 3.298672915 5.132834911 4.86571455
vertex 4.426009655 2.021290779 6.101412773
vertex 5.550040245 2.534618378 4.86571455

endloop
endfacet
facet normal 0.7142255902 0.1026900634 0.6923414469
outer loop
vertex 4.426009655 2.021290779 6.101412773
vertex 4.816188335 -0.6924633384 6.101412773
vertex 5.550040245 2.534618378 4.86571455

endloop
endfacet
facet normal 0.7142255306 0.1026901007 0.6923414469
outer loop
vertex 5.550040245 2.534618378 4.86571455
vertex 4.816188335 -0.6924633384 6.101412773
vertex 6.039309025 -0.8683215976 4.86571455

endloop
endfacet
facet normal 0.6563631296 -0.2997509539 0.6923413873
outer loop
vertex 4.816188335 -0.6924633384 6.101412773
vertex 3.677261591 -3.186365366 6.101412773
vertex 6.039309025 -0.8683215976 4.86571455

endloop
endfacet
facet normal 0.6563631892 -0.2997509539 0.6923415065
outer loop
vertex 6.039309025 -0.8683215976 4.86571455
vertex 3.677261591 -3.186365366 6.101412773
vertex 4.611140251 -3.995575666 4.86571455

endloop
endfacet
facet normal 0.3901101947 -0.6070233583 0.6923414469
outer loop
vertex 3.677261591 -3.186365366 6.101412773
vertex 1.370830178 -4.668618679 6.101412773
vertex 4.611140251 -3.995575666 4.86571455

endloop
endfacet
facet normal 0.3901101351 -0.6070232987 0.6923415065
outer loop
vertex 4.611140251 -3.995575666 4.86571455
vertex 1.370830178 -4.668618679 6.101412773
vertex 1.718966603 -5.854262829 4.86571455

endloop
endfacet
facet normal 0 -0.7215699553 0.6923415065
outer loop
vertex 1.370830178 -4.668618679 6.101412773
vertex -1.370830178 -4.668618679 6.101412773
vertex 1.718966603 -5.854262829 4.86571455

endloop
endfacet
facet normal 0 -0.721570015 0.6923415661
outer loop
vertex 1.718966603 -5.854262829 4.86571455
vertex -1.370830178 -4.668618679 6.101412773
vertex -1.718966603 -5.854262829 4.86571455

endloop
endfacet
facet normal -0.3901101351 -0.6070232391 0.6923414469
outer loop
vertex -1.370830178 -4.668618679 6.101412773
vertex -3.677261591 -3.186365366 6.101412773
vertex -1.718966603 -5.854262829 4.86571455

endloop
endfacet
facet normal -0.3901102543 -0.6070233583 0.6923415661
outer loop
vertex -1.718966603 -5.854262829 4.86571455
vertex -3.677261591 -3.186365366 6.101412773
vertex -4.611140251 -3.995575666 4.86571455

endloop
endfacet
facet normal -0.6563631296 -0.2997509539 0.6923415065
outer loop
vertex -3.677261591 -3.186365366 6.101412773
vertex -4.816188335 -0.6924633384 6.101412773
vertex -4.611140251 -3.995575666 4.86571455

endloop
endfacet
facet normal -0.6563631892 -0.2997509837 0.6923414469
outer loop
vertex -4.611140251 -3.995575666 4.86571455
vertex -4.816188335 -0.6924633384 6.101412773
vertex -6.039309025 -0.8683215976 4.86571455

endloop
endfacet
facet normal -0.7142255306 0.102690056 0.6923414469
outer loop
vertex -4.816188335 -0.6924633384 6.101412773
vertex -4.426009655 2.021290779 6.101412773
vertex -6.039309025 -0.8683215976 4.86571455

endloop
endfacet
facet normal -0.7142255306 0.1026900932 0.6923413873
outer loop
vertex -6.039309025 -0.8683215976 4.86571455
vertex -4.426009655 2.021290779 6.101412773
vertex -5.550040245 2.534618378 4.86571455

endloop
endfacet
facet normal -0.5453262925 0.4725279212 0.6923414469
outer loop
vertex -4.426009655 2.021290779 6.101412773
vertex -2.63060379 4.093299389 6.101412773
vertex -5.550040245 2.534618378 4.86571455

endloop
endfacet
facet normal -0.5453262925 0.4725278616 0.6923415065
outer loop
vertex -5.550040245 2.534618378 4.86571455
vertex -2.63060379 4.093299389 6.101412773
vertex -3.298672915 5.132834911 4.86571455

endloop
endfacet
facet normal -0.2032898068 0.6923413277 0.6923413873
outer loop
vertex -2.63060379 4.093299389 6.101412773
vertex 0 4.86571455 6.101412773
vertex -3.298672915 5.132834911 4.86571455

endloop
endfacet
facet normal -0.2032898217 0.6923414469 0.6923414469
outer loop
vertex -3.298672915 5.132834911 4.86571455
vertex 0 4.86571455 6.101412773
vertex 0 6.101412773 4.86571455

endloop
endfacet
facet normal 0.2412756234 0.8217092156 0.5163139701
outer loop
vertex 0 6.101412773 4.86571455
vertex 3.298672915 5.132834911 4.86571455
vertex 0 7.031160831 3.386028767

endloop
endfacet
facet normal 0.2412755042 0.8217090964 0.5163140893
outer loop
vertex 0 7.031160831 3.386028767
vertex 3.298672915 5.132834911 4.86571455
vertex 3.801332712 5.914988995 3.386028767

endloop
endfacet
facet normal 0.647223413 0.5608222485 0.5163140893
outer loop
vertex 3.298672915 5.132834911 4.86571455
vertex 5.550040245 2.534618378 4.86571455
vertex 3.801332712 5.914988995 3.386028767

endloop
endfacet
facet normal 0.6472233534 0.5608222485 0.5163140893
outer loop
vertex 3.801332712 5.914988995 3.386028767
vertex 5.550040245 2.534618378 4.86571455
vertex 6.395769119 2.9208498 3.386028767

endloop
endfacet
facet normal 0.8476823568 0.1218782887 0.5163140893
outer loop
vertex 5.550040245 2.534618378 4.86571455
vertex 6.039309025 -0.8683215976 4.86571455
vertex 6.395769119 2.9208498 3.386028767

endloop
endfacet
facet normal 0.8476823568 0.1218782738 0.5163140893
outer loop
vertex 6.395769119 2.9208498 3.386028767
vertex 6.039309025 -0.8683215976 4.86571455
vertex 6.959593773 -1.000638485 3.386028767

endloop
endfacet
facet normal 0.7790082693 -0.355761081 0.5163140893
outer loop
vertex 6.039309025 -0.8683215976 4.86571455
vertex 4.611140251 -3.995575666 4.86571455
vertex 6.959593773 -1.000638485 3.386028767

endloop
endfacet
facet normal 0.7790082693 -0.3557611108 0.5163140297
outer loop
vertex 6.959593773 -1.000638485 3.386028767
vertex 4.611140251 -3.995575666 4.86571455
vertex 5.313796997 -4.604431152 3.386028767

endloop
endfacet
facet normal 0.4630044401 -0.7204490304 0.5163140297
outer loop
vertex 4.611140251 -3.995575666 4.86571455
vertex 1.718966603 -5.854262829 4.86571455
vertex 5.313796997 -4.604431152 3.386028767

endloop
endfacet
facet normal 0.4630044103 -0.7204489708 0.5163139105
outer loop
vertex 5.313796997 -4.604431152 3.386028767
vertex 1.718966603 -5.854262829 4.86571455
vertex 1.980906963 -6.746349335 3.386028767

endloop
endfacet
facet normal 0 -0.8563994169 0.5163139105
outer loop
vertex 1.718966603 -5.854262829 4.86571455
vertex -1.718966603 -5.854262829 4.86571455
vertex 1.980906963 -6.746349335 3.386028767

endloop
endfacet
facet normal 0 -0.8563994169 0.5163139701
outer loop
vertex 1.980906963 -6.746349335 3.386028767
vertex -1.718966603 -5.854262829 4.86571455
vertex -1.980906963 -6.746349335 3.386028767

endloop
endfacet
facet normal -0.4630044699 -0.72044909 0.5163139701
outer loop
vertex -1.718966603 -5.854262829 4.86571455
vertex -4.611140251 -3.995575666 4.86571455
vertex -1.980906963 -6.746349335 3.386028767

endloop
endfacet
facet normal -0.4630044103 -0.7204489708 0.5163140297
outer loop
vertex -1.980906963 -6.746349335 3.386028767
vertex -4.611140251 -3.995575666 4.86571455
vertex -5.313796997 -4.604431152 3.386028767

endloop
endfacet
facet normal -0.7790082693 -0.355761081 0.5163140297
outer loop
vertex -4.611140251 -3.995575666 4.86571455
vertex -6.039309025 -0.8683215976 4.86571455
vertex -5.313796997 -4.604431152 3.386028767

endloop
endfacet
facet normal -0.7790082097 -0.3557611108 0.5163140893
outer loop
vertex -5.313796997 -4.604431152 3.386028767
vertex -6.039309025 -0.8683215976 4.86571455
vertex -6.959593773 -1.000638485 3.386028767

endloop
endfacet
facet normal -0.847682476 0.1218782961 0.5163140893
outer loop
vertex -6.039309025 -0.8683215976 4.86571455
vertex -5.550040245 2.534618378 4.86571455
vertex -6.959593773 -1.000638485 3.386028767

endloop
endfacet
facet normal -0.8476823568 0.1218782663 0.5163141489
outer loop
vertex -6.959593773 -1.000638485 3.386028767
vertex -5.550040245 2.534618378 4.86571455
vertex -6.395769119 2.9208498 3.386028767

endloop
endfacet
facet normal -0.647223413 0.5608222485 0.5163141489
outer loop
vertex -5.550040245 2.534618378 4.86571455
vertex -3.298672915 5.132834911 4.86571455
vertex -6.395769119 2.9208498 3.386028767

endloop
endfacet
facet normal -0.6472233534 0.5608222485 0.5163140297
outer loop
vertex -6.395769119 2.9208498 3.386028767
vertex -3.298672915 5.132834911 4.86571455
vertex -3.801332712 5.914988995 3.386028767

endloop
endfacet
facet normal -0.2412755936 0.821709156 0.5163140893
outer loop
vertex -3.298672915 5.132834911 4.86571455
vertex 0 6.101412773 4.86571455
vertex -3.801332712 5.914988995 3.386028767

endloop
endfacet
facet normal -0.2412755638 0.8217092156 0.5163140297
outer loop
vertex -3.801332712 5.914988995 3.386028767
vertex 0 6.101412773 4.86571455
vertex 0 7.031160831 3.386028767

endloop
endfacet
facet normal 0.2670813799 0.9095957875 0.3182814121
outer loop
vertex 0 7.031160831 3.386028767
vertex 3.801332712 5.914988995 3.386028767
vertex 0 7.608337402 1.736553311

endloop
endfacet
facet normal 0.2670814097 0.9095958471 0.3182813525
outer loop
vertex 0 7.608337402 1.736553311
vertex 3.801332712 5.914988995 3.386028767
vertex 4.113377571 6.400540829 1.736553311

endloop
endfacet
facet normal 0.7164478898 0.6208055615 0.3182812333
outer loop
vertex 3.801332712 5.914988995 3.386028767
vertex 6.395769119 2.9208498 3.386028767
vertex 4.113377571 6.400540829 1.736553311

endloop
endfacet
facet normal 0.7164478898 0.6208055615 0.3182812035
outer loop
vertex 4.113377571 6.400540829 1.736553311
vertex 6.395769119 2.9208498 3.386028767
vertex 6.920786858 3.16061759 1.736553311

endloop
endfacet
facet normal 0.9383471608 0.1349138916 0.3182811141
outer loop
vertex 6.395769119 2.9208498 3.386028767
vertex 6.959593773 -1.000638485 3.386028767
vertex 6.920786858 3.16061759 1.736553311

endloop
endfacet
facet normal 0.9383471012 0.1349139661 0.3182812631
outer loop
vertex 6.920786858 3.16061759 1.736553311
vertex 6.959593773 -1.000638485 3.386028767
vertex 7.530895233 -1.082779288 1.736553311

endloop
endfacet
facet normal 0.8623277545 -0.3938118815 0.3182813227
outer loop
vertex 6.959593773 -1.000638485 3.386028767
vertex 5.313796997 -4.604431152 3.386028767
vertex 7.530895233 -1.082779288 1.736553311

endloop
endfacet
facet normal 0.8623278141 -0.3938119113 0.3182812035
outer loop
vertex 7.530895233 -1.082779288 1.736553311
vertex 5.313796997 -4.604431152 3.386028767
vertex 5.749997616 -4.982401371 1.736553311

endloop
endfacet
facet normal 0.5125254989 -0.7975053191 0.3182813227
outer loop
vertex 5.313796997 -4.604431152 3.386028767
vertex 1.980906963 -6.746349335 3.386028767
vertex 5.749997616 -4.982401371 1.736553311

endloop
endfacet
facet normal 0.5125254989 -0.7975053191 0.3182813823
outer loop
vertex 5.749997616 -4.982401371 1.736553311
vertex 1.980906963 -6.746349335 3.386028767
vertex 2.143516302 -7.300146103 1.736553311

endloop
endfacet
facet normal 0 -0.9479962587 0.3182813525
outer loop
vertex 1.980906963 -6.746349335 3.386028767
vertex -1.980906963 -6.746349335 3.386028767
vertex 2.143516302 -7.300146103 1.736553311

endloop
endfacet
facet normal 0 -0.9479962587 0.3182813823
outer loop
vertex 2.143516302 -7.300146103 1.736553311
vertex -1.980906963 -6.746349335 3.386028767
vertex -2.143516302 -7.300146103 1.736553311

endloop
endfacet
facet normal -0.5125254393 -0.7975051999 0.3182813525
outer loop
vertex -1.980906963 -6.746349335 3.386028767
vertex -5.313796997 -4.604431152 3.386028767
vertex -2.143516302 -7.300146103 1.736553311

endloop
endfacet
facet normal -0.5125254989 -0.7975052595 0.3182812929
outer loop
vertex -2.143516302 -7.300146103 1.736553311
vertex -5.313796997 -4.604431152 3.386028767
vertex -5.749997616 -4.982401371 1.736553311

endloop
endfacet
facet normal -0.8623277545 -0.3938118815 0.3182812333
outer loop
vertex -5.313796997 -4.604431152 3.386028767
vertex -6.959593773 -1.000638485 3.386028767
vertex -5.749997616 -4.982401371 1.736553311

endloop
endfacet
facet normal -0.8623278141 -0.3938119113 0.3182812929
outer loop
vertex -5.749997616 -4.982401371 1.736553311
vertex -6.959593773 -1.000638485 3.386028767
vertex -7.530895233 -1.082779288 1.736553311

endloop
endfacet
facet normal -0.9383471012 0.1349138767 0.3182812035
outer loop
vertex -6.959593773 -1.000638485 3.386028767
vertex -6.395769119 2.9208498 3.386028767
vertex -7.530895233 -1.082779288 1.736553311

endloop
endfacet
facet normal -0.9383471608 0.1349139512 0.3182811439
outer loop
vertex -7.530895233 -1.082779288 1.736553311
vertex -6.395769119 2.9208498 3.386028767
vertex -6.920786858 3.16061759 1.736553311

endloop
endfacet
facet normal -0.7164478898 0.6208055615 0.3182812333
outer loop
vertex -6.395769119 2.9208498 3.386028767
vertex -3.801332712 5.914988995 3.386028767
vertex -6.920786858 3.16061759 1.736553311

endloop
endfacet
facet normal -0.7164478898 0.6208055615 0.3182812929
outer loop
vertex -6.920786858 3.16061759 1.736553311
vertex -3.801332712 5.914988995 3.386028767
vertex -4.113377571 6.400540829 1.736553311

endloop
endfacet
facet normal -0.2670814097 0.9095958471 0.3182813525
outer loop
vertex -3.801332712 5.914988995 3.386028767
vertex 0 7.031160831 3.386028767
vertex -4.113377571 6.400540829 1.736553311

endloop
endfacet
facet normal -0.2670814395 0.9095958471 0.3182814419
outer loop
vertex -4.113377571 6.400540829 1.736553311
vertex 0 7.031160831 3.386028767
vertex 0 7.608337402 1.736553311

endloop
endfacet
facet normal 0.2801004648 0.9539346695 0.1074825451
outer loop
vertex 0 7.608337402 1.736553311
vertex 4.113377571 6.400540829 1.736553311
vertex 0 7.803999901 4.778571841e-16

endloop
endfacet
facet normal 0.2801004052 0.9539345503 0.1074826494
outer loop
vertex 0 7.803999901 4.778571841e-16
vertex 4.113377571 6.400540829 1.736553311
vertex 4.219161034 6.565142632 4.778571841e-16

endloop
endfacet
facet normal 0.7513715029 0.6510670781 0.1074827835
outer loop
vertex 4.113377571 6.400540829 1.736553311
vertex 6.920786858 3.16061759 1.736553311
vertex 4.219161034 6.565142632 4.778571841e-16

endloop
endfacet
facet normal 0.7513715029 0.6510670781 0.1074828133
outer loop
vertex 4.219161034 6.565142632 4.778571841e-16
vertex 6.920786858 3.16061759 1.736553311
vertex 7.098768234 3.241898775 4.778571841e-16

endloop
endfacet
facet normal 0.984087348 0.1414903998 0.1074828506
outer loop
vertex 6.920786858 3.16061759 1.736553311
vertex 7.530895233 -1.082779288 1.736553311
vertex 7.098768234 3.241898775 4.778571841e-16

endloop
endfacet
facet normal 0.9840874076 0.1414903551 0.1074827462
outer loop
vertex 7.098768234 3.241898775 4.778571841e-16
vertex 7.530895233 -1.082779288 1.736553311
vertex 7.72456646 -1.110625029 4.778571841e-16

endloop
endfacet
facet normal 0.9043624401 -0.4130084813 0.1074826568
outer loop
vertex 7.530895233 -1.082779288 1.736553311
vertex 5.749997616 -4.982401371 1.736553311
vertex 7.72456646 -1.110625029 4.778571841e-16

endloop
endfacet
facet normal 0.9043624401 -0.4130084813 0.1074826717
outer loop
vertex 7.72456646 -1.110625029 4.778571841e-16
vertex 5.749997616 -4.982401371 1.736553311
vertex 5.897869587 -5.110533237 4.778571841e-16

endloop
endfacet
facet normal 0.5375088453 -0.8363801837 0.1074827313
outer loop
vertex 5.749997616 -4.982401371 1.736553311
vertex 2.143516302 -7.300146103 1.736553311
vertex 5.897869587 -5.110533237 4.778571841e-16

endloop
endfacet
facet normal 0.5375087857 -0.8363801241 0.1074826792
outer loop
vertex 5.897869587 -5.110533237 4.778571841e-16
vertex 2.143516302 -7.300146103 1.736553311
vertex 2.198640823 -7.487883091 4.778571841e-16

endloop
endfacet
facet normal 0 -0.994206965 0.1074826866
outer loop
vertex 2.143516302 -7.300146103 1.736553311
vertex -2.143516302 -7.300146103 1.736553311
vertex 2.198640823 -7.487883091 4.778571841e-16

endloop
endfacet
facet normal 0 -0.9942069054 0.1074826866
outer loop
vertex 2.198640823 -7.487883091 4.778571841e-16
vertex -2.143516302 -7.300146103 1.736553311
vertex -2.198640823 -7.487883091 4.778571841e-16

endloop
endfacet
facet normal -0.5375088453 -0.8363801837 0.1074826717
outer loop
vertex -2.143516302 -7.300146103 1.736553311
vertex -5.749997616 -4.982401371 1.736553311
vertex -2.198640823 -7.487883091 4.778571841e-16

endloop
endfacet
facet normal -0.5375087857 -0.8363801241 0.1074826941
outer loop
vertex -2.198640823 -7.487883091 4.778571841e-16
vertex -5.749997616 -4.982401371 1.736553311
vertex -5.897869587 -5.110533237 4.778571841e-16

endloop
endfacet
facet normal -0.9043624401 -0.4130084813 0.1074826568
outer loop
vertex -5.749997616 -4.982401371 1.736553311
vertex -7.530895233 -1.082779288 1.736553311
vertex -5.897869587 -5.110533237 4.778571841e-16

endloop
endfacet
facet normal -0.9043624997 -0.4130085409 0.1074827537
outer loop
vertex -5.897869587 -5.110533237 4.778571841e-16
vertex -7.530895233 -1.082779288 1.736553311
vertex -7.72456646 -1.110625029 4.778571841e-16

endloop
endfacet
facet normal -0.984087348 0.1414903998 0.1074827537
outer loop
vertex -7.530895233 -1.082779288 1.736553311
vertex -6.920786858 3.16061759 1.736553311
vertex -7.72456646 -1.110625029 4.778571841e-16

endloop
endfacet
facet normal -0.984087348 0.1414903402 0.1074828655
outer loop
vertex -7.72456646 -1.110625029 4.778571841e-16
vertex -6.920786858 3.16061759 1.736553311
vertex -7.098768234 3.241898775 4.778571841e-16

endloop
endfacet
facet normal -0.7513715029 0.6510670781 0.1074827835
outer loop
vertex -6.920786858 3.16061759 1.736553311
vertex -4.113377571 6.400540829 1.736553311
vertex -7.098768234 3.241898775 4.778571841e-16

endloop
endfacet
facet normal -0.7513715029 0.6510670781 0.1074827313
outer loop
vertex -7.098768234 3.241898775 4.778571841e-16
vertex -4.113377571 6.400540829 1.736553311
vertex -4.219161034 6.565142632 4.778571841e-16

endloop
endfacet
facet normal -0.2801004648 0.9539346695 0.1074826717
outer loop
vertex -4.113377571 6.400540829 1.736553311
vertex 0 7.608337402 1.736553311
vertex -4.219161034 6.565142632 4.778571841e-16

endloop
endfacet
facet normal -0.2801004052 0.9539345503 0.1074825749
outer loop
vertex -4.219161034 6.565142632 4.778571841e-16
vertex 0 7.608337402 1.736553311
vertex 0 7.803999901 4.778571841e-16

endloop
endfacet
facet normal 0.2801004052 0.9539345503 -0.10748256
outer loop
vertex 0 7.803999901 4.778571841e-16
vertex 4.219161034 6.565142632 4.778571841e-16
vertex 0 7.608337402 -1.736553311

endloop
endfacet
facet normal 0.2801004648 0.9539346695 -0.1074826568
outer loop
vertex 0 7.608337402 -1.736553311
vertex 4.219161034 6.565142632 4.778571841e-16
vertex 4.113377571 6.400540829 -1.736553311

endloop
endfacet
facet normal 0.7513714433 0.6510670781 -0.107482627
outer loop
vertex 4.219161034 6.565142632 4.778571841e-16
vertex 7.098768234 3.241898775 4.778571841e-16
vertex 4.113377571 6.400540829 -1.736553311

endloop
endfacet
facet normal 0.7513715029 0.6510670185 -0.1074828207
outer loop
vertex 4.113377571 6.400540829 -1.736553311
vertex 7.098768234 3.241898775 4.778571841e-16
vertex 6.920786858 3.16061759 -1.736553311

endloop
endfacet
facet normal 0.984087348 0.1414903551 -0.1074828729
outer loop
vertex 7.098768234 3.241898775 4.778571841e-16
vertex 7.72456646 -1.110625029 4.778571841e-16
vertex 6.920786858 3.16061759 -1.736553311

endloop
endfacet
facet normal 0.9840874076 0.1414903998 -0.1074827388
outer loop
vertex 6.920786858 3.16061759 -1.736553311
vertex 7.72456646 -1.110625029 4.778571841e-16
vertex 7.530895233 -1.082779288 -1.736553311

endloop
endfacet
facet normal 0.9043624401 -0.4130084813 -0.1074826866
outer loop
vertex 7.72456646 -1.110625029 4.778571841e-16
vertex 5.897869587 -5.110533237 4.778571841e-16
vertex 7.530895233 -1.082779288 -1.736553311

endloop
endfacet
facet normal 0.9043624997 -0.4130085111 -0.1074826941
outer loop
vertex 7.530895233 -1.082779288 -1.736553311
vertex 5.897869587 -5.110533237 4.778571841e-16
vertex 5.749997616 -4.982401371 -1.736553311

endloop
endfacet
facet normal 0.5375088453 -0.8363801241 -0.1074826345
outer loop
vertex 5.897869587 -5.110533237 4.778571841e-16
vertex 2.198640823 -7.487883091 4.778571841e-16
vertex 5.749997616 -4.982401371 -1.736553311

endloop
endfacet
facet normal 0.5375088453 -0.8363801837 -0.1074826941
outer loop
vertex 5.749997616 -4.982401371 -1.736553311
vertex 2.198640823 -7.487883091 4.778571841e-16
vertex 2.143516302 -7.300146103 -1.736553311

endloop
endfacet
facet normal 0 -0.9942069054 -0.1074826866
outer loop
vertex 2.198640823 -7.487883091 4.778571841e-16
vertex -2.198640823 -7.487883091 4.778571841e-16
vertex 2.143516302 -7.300146103 -1.736553311

endloop
endfacet
facet normal 0 -0.9942069054 -0.1074826792
outer loop
vertex 2.143516302 -7.300146103 -1.736553311
vertex -2.198640823 -7.487883091 4.778571841e-16
vertex -2.143516302 -7.300146103 -1.736553311

endloop
endfacet
facet normal -0.5375088453 -0.8363801241 -0.1074826345
outer loop
vertex -2.198640823 -7.487883091 4.778571841e-16
vertex -5.897869587 -5.110533237 4.778571841e-16
vertex -2.143516302 -7.300146103 -1.736553311

endloop
endfacet
facet normal -0.5375088453 -0.8363801837 -0.107482709
outer loop
vertex -2.143516302 -7.300146103 -1.736553311
vertex -5.897869587 -5.110533237 4.778571841e-16
vertex -5.749997616 -4.982401371 -1.736553311

endloop
endfacet
facet normal -0.9043624401 -0.4130084813 -0.1074826866
outer loop
vertex -5.897869587 -5.110533237 4.778571841e-16
vertex -7.72456646 -1.110625029 4.778571841e-16
vertex -5.749997616 -4.982401371 -1.736553311

endloop
endfacet
facet normal -0.9043624401 -0.4130084813 -0.1074827388
outer loop
vertex -5.749997616 -4.982401371 -1.736553311
vertex -7.72456646 -1.110625029 4.778571841e-16
vertex -7.530895233 -1.082779288 -1.736553311

endloop
endfacet
facet normal -0.984087348 0.1414903551 -0.1074827313
outer loop
vertex -7.72456646 -1.110625029 4.778571841e-16
vertex -7.098768234 3.241898775 4.778571841e-16
vertex -7.530895233 -1.082779288 -1.736553311

endloop
endfacet
facet normal -0.984087348 0.1414903998 -0.1074828655
outer loop
vertex -7.530895233 -1.082779288 -1.736553311
vertex -7.098768234 3.241898775 4.778571841e-16
vertex -6.920786858 3.16061759 -1.736553311

endloop
endfacet
facet normal -0.7513714433 0.6510670781 -0.1074827462
outer loop
vertex -7.098768234 3.241898775 4.778571841e-16
vertex -4.219161034 6.565142632 4.778571841e-16
vertex -6.920786858 3.16061759 -1.736553311

endloop
endfacet
facet normal -0.7513715029 0.6510670185 -0.1074827239
outer loop
vertex -6.920786858 3.16061759 -1.736553311
vertex -4.219161034 6.565142632 4.778571841e-16
vertex -4.113377571 6.400540829 -1.736553311

endloop
endfacet
facet normal -0.2801004052 0.9539345503 -0.107482627
outer loop
vertex -4.219161034 6.565142632 4.778571841e-16
vertex 0 7.803999901 4.778571841e-16
vertex -4.113377571 6.400540829 -1.736553311

endloop
endfacet
facet normal -0.2801004648 0.9539346695 -0.1074825823
outer loop
vertex -4.113377571 6.400540829 -1.736553311
vertex 0 7.803999901 4.778571841e-16
vertex 0 7.608337402 -1.736553311

endloop
endfacet
facet normal 0.2670814097 0.9095958471 -0.3182814419
outer loop
vertex 0 7.608337402 -1.736553311
vertex 4.113377571 6.400540829 -1.736553311
vertex 0 7.031160831 -3.386028767

endloop
endfacet
facet normal 0.2670813799 0.9095957875 -0.3182813525
outer loop
vertex 0 7.031160831 -3.386028767
vertex 4.113377571 6.400540829 -1.736553311
vertex 3.801332712 5.914988995 -3.386028767

endloop
endfacet
facet normal 0.7164478898 0.6208055615 -0.3182813525
outer loop
vertex 4.113377571 6.400540829 -1.736553311
vertex 6.920786858 3.16061759 -1.736553311
vertex 3.801332712 5.914988995 -3.386028767

endloop
endfacet
facet normal 0.7164478898 0.6208055615 -0.3182811737
outer loop
vertex 3.801332712 5.914988995 -3.386028767
vertex 6.920786858 3.16061759 -1.736553311
vertex 6.395769119 2.9208498 -3.386028767

endloop
endfacet
facet normal 0.9383471012 0.1349139512 -0.3182811141
outer loop
vertex 6.920786858 3.16061759 -1.736553311
vertex 7.530895233 -1.082779288 -1.736553311
vertex 6.395769119 2.9208498 -3.386028767

endloop
endfacet
facet normal 0.9383471012 0.1349138767 -0.3182812333
outer loop
vertex 6.395769119 2.9208498 -3.386028767
vertex 7.530895233 -1.082779288 -1.736553311
vertex 6.959593773 -1.000638485 -3.386028767

endloop
endfacet
facet normal 0.8623278141 -0.3938119113 -0.3182813525
outer loop
vertex 7.530895233 -1.082779288 -1.736553311
vertex 5.749997616 -4.982401371 -1.736553311
vertex 6.959593773 -1.000638485 -3.386028767

endloop
endfacet
facet normal 0.8623278737 -0.3938119113 -0.3182812333
outer loop
vertex 6.959593773 -1.000638485 -3.386028767
vertex 5.749997616 -4.982401371 -1.736553311
vertex 5.313796997 -4.604431152 -3.386028767

endloop
endfacet
facet normal 0.5125254989 -0.7975053191 -0.3182813525
outer loop
vertex 5.749997616 -4.982401371 -1.736553311
vertex 2.143516302 -7.300146103 -1.736553311
vertex 5.313796997 -4.604431152 -3.386028767

endloop
endfacet
facet normal 0.5125254989 -0.7975052595 -0.3182813525
outer loop
vertex 5.313796997 -4.604431152 -3.386028767
vertex 2.143516302 -7.300146103 -1.736553311
vertex 1.980906963 -6.746349335 -3.386028767

endloop
endfacet
facet normal 0 -0.9479963183 -0.3182813823
outer loop
vertex 2.143516302 -7.300146103 -1.736553311
vertex -2.143516302 -7.300146103 -1.736553311
vertex 1.980906963 -6.746349335 -3.386028767

endloop
endfacet
facet normal 0 -0.9479963183 -0.3182813525
outer loop
vertex 1.980906963 -6.746349335 -3.386028767
vertex -2.143516302 -7.300146103 -1.736553311
vertex -1.980906963 -6.746349335 -3.386028767

endloop
endfacet
facet normal -0.5125254393 -0.7975051999 -0.3182813823
outer loop
vertex -2.143516302 -7.300146103 -1.736553311
vertex -5.749997616 -4.982401371 -1.736553311
vertex -1.980906963 -6.746349335 -3.386028767

endloop
endfacet
facet normal -0.5125254989 -0.7975053191 -0.3182813227
outer loop
vertex -1.980906963 -6.746349335 -3.386028767
vertex -5.749997616 -4.982401371 -1.736553311
vertex -5.313796997 -4.604431152 -3.386028767

endloop
endfacet
facet normal -0.8623278141 -0.3938119113 -0.3182812929
outer loop
vertex -5.749997616 -4.982401371 -1.736553311
vertex -7.530895233 -1.082779288 -1.736553311
vertex -5.313796997 -4.604431152 -3.386028767

endloop
endfacet
facet normal -0.8623277545 -0.3938118815 -0.3182812333
outer loop
vertex -5.313796997 -4.604431152 -3.386028767
vertex -7.530895233 -1.082779288 -1.736553311
vertex -6.959593773 -1.000638485 -3.386028767

endloop
endfacet
facet normal -0.9383471012 0.1349139512 -0.3182812631
outer loop
vertex -7.530895233 -1.082779288 -1.736553311
vertex -6.920786858 3.16061759 -1.736553311
vertex -6.959593773 -1.000638485 -3.386028767

endloop
endfacet
facet normal -0.9383471012 0.1349138916 -0.3182811439
outer loop
vertex -6.959593773 -1.000638485 -3.386028767
vertex -6.920786858 3.16061759 -1.736553311
vertex -6.395769119 2.9208498 -3.386028767

endloop
endfacet
facet normal -0.7164478898 0.6208055615 -0.3182812035
outer loop
vertex -6.920786858 3.16061759 -1.736553311
vertex -4.113377571 6.400540829 -1.736553311
vertex -6.395769119 2.9208498 -3.386028767

endloop
endfacet
facet normal -0.7164478898 0.6208055615 -0.3182812929
outer loop
vertex -6.395769119 2.9208498 -3.386028767
vertex -4.113377571 6.400540829 -1.736553311
vertex -3.801332712 5.914988995 -3.386028767

endloop
endfacet
facet normal -0.2670814097 0.9095958471 -0.3182813525
outer loop
vertex -4.113377571 6.400540829 -1.736553311
vertex 0 7.608337402 -1.736553311
vertex -3.801332712 5.914988995 -3.386028767

endloop
endfacet
facet normal -0.2670813799 0.9095957875 -0.3182814121
outer loop
vertex -3.801332712 5.914988995 -3.386028767
vertex 0 7.608337402 -1.736553311
vertex 0 7.031160831 -3.386028767

endloop
endfacet
facet normal 0.2412755638 0.8217092156 -0.5163140297
outer loop
vertex 0 7.031160831 -3.386028767
vertex 3.801332712 5.914988995 -3.386028767
vertex 0 6.101412773 -4.86571455

endloop
endfacet
facet normal 0.2412755936 0.8217090368 -0.5163141489
outer loop
vertex 0 6.101412773 -4.86571455
vertex 3.801332712 5.914988995 -3.386028767
vertex 3.298672915 5.132834911 -4.86571455

endloop
endfacet
facet normal 0.647223413 0.5608223081 -0.5163140893
outer loop
vertex 3.801332712 5.914988995 -3.386028767
vertex 6.395769119 2.9208498 -3.386028767
vertex 3.298672915 5.132834911 -4.86571455

endloop
endfacet
facet normal 0.647223413 0.5608223081 -0.5163141489
outer loop
vertex 3.298672915 5.132834911 -4.86571455
vertex 6.395769119 2.9208498 -3.386028767
vertex 5.550040245 2.534618378 -4.86571455

endloop
endfacet
facet normal 0.8476823568 0.1218782812 -0.5163141489
outer loop
vertex 6.395769119 2.9208498 -3.386028767
vertex 6.959593773 -1.000638485 -3.386028767
vertex 5.550040245 2.534618378 -4.86571455

endloop
endfacet
facet normal 0.8476823568 0.1218782887 -0.5163140893
outer loop
vertex 5.550040245 2.534618378 -4.86571455
vertex 6.959593773 -1.000638485 -3.386028767
vertex 6.039309025 -0.8683215976 -4.86571455

endloop
endfacet
facet normal 0.7790082097 -0.3557611108 -0.5163140893
outer loop
vertex 6.959593773 -1.000638485 -3.386028767
vertex 5.313796997 -4.604431152 -3.386028767
vertex 6.039309025 -0.8683215976 -4.86571455

endloop
endfacet
facet normal 0.7790082693 -0.355761081 -0.5163139701
outer loop
vertex 6.039309025 -0.8683215976 -4.86571455
vertex 5.313796997 -4.604431152 -3.386028767
vertex 4.611140251 -3.995575666 -4.86571455

endloop
endfacet
facet normal 0.4630044103 -0.7204489708 -0.5163139105
outer loop
vertex 5.313796997 -4.604431152 -3.386028767
vertex 1.980906963 -6.746349335 -3.386028767
vertex 4.611140251 -3.995575666 -4.86571455

endloop
endfacet
facet normal 0.4630044699 -0.7204490304 -0.5163139701
outer loop
vertex 4.611140251 -3.995575666 -4.86571455
vertex 1.980906963 -6.746349335 -3.386028767
vertex 1.718966603 -5.854262829 -4.86571455

endloop
endfacet
facet normal 0 -0.8563994169 -0.5163139105
outer loop
vertex 1.980906963 -6.746349335 -3.386028767
vertex -1.980906963 -6.746349335 -3.386028767
vertex 1.718966603 -5.854262829 -4.86571455

endloop
endfacet
facet normal 0 -0.8563994169 -0.5163139105
outer loop
vertex 1.718966603 -5.854262829 -4.86571455
vertex -1.980906963 -6.746349335 -3.386028767
vertex -1.718966603 -5.854262829 -4.86571455

endloop
endfacet
facet normal -0.4630044103 -0.7204489708 -0.5163139105
outer loop
vertex -1.980906963 -6.746349335 -3.386028767
vertex -5.313796997 -4.604431152 -3.386028767
vertex -1.718966603 -5.854262829 -4.86571455

endloop
endfacet
facet normal -0.4630044401 -0.7204490304 -0.5163140297
outer loop
vertex -1.718966603 -5.854262829 -4.86571455
vertex -5.313796997 -4.604431152 -3.386028767
vertex -4.611140251 -3.995575666 -4.86571455

endloop
endfacet
facet normal -0.7790083289 -0.3557611406 -0.5163140297
outer loop
vertex -5.313796997 -4.604431152 -3.386028767
vertex -6.959593773 -1.000638485 -3.386028767
vertex -4.611140251 -3.995575666 -4.86571455

endloop
endfacet
facet normal -0.7790082693 -0.355761081 -0.5163140893
outer loop
vertex -4.611140251 -3.995575666 -4.86571455
vertex -6.959593773 -1.000638485 -3.386028767
vertex -6.039309025 -0.8683215976 -4.86571455

endloop
endfacet
facet normal -0.8476823568 0.1218782812 -0.5163140893
outer loop
vertex -6.959593773 -1.000638485 -3.386028767
vertex -6.395769119 2.9208498 -3.386028767
vertex -6.039309025 -0.8683215976 -4.86571455

endloop
endfacet
facet normal -0.8476823568 0.1218782961 -0.5163142085
outer loop
vertex -6.039309025 -0.8683215976 -4.86571455
vertex -6.395769119 2.9208498 -3.386028767
vertex -5.550040245 2.534618378 -4.86571455

endloop
endfacet
facet normal -0.6472233534 0.5608222485 -0.5163141489
outer loop
vertex -6.395769119 2.9208498 -3.386028767
vertex -3.801332712 5.914988995 -3.386028767
vertex -5.550040245 2.534618378 -4.86571455

endloop
endfacet
facet normal -0.6472234726 0.5608223081 -0.5163140893
outer loop
vertex -5.550040245 2.534618378 -4.86571455
vertex -3.801332712 5.914988995 -3.386028767
vertex -3.298672915 5.132834911 -4.86571455

endloop
endfacet
facet normal -0.241275534 0.8217090964 -0.5163141489
outer loop
vertex -3.801332712 5.914988995 -3.386028767
vertex 0 7.031160831 -3.386028767
vertex -3.298672915 5.132834911 -4.86571455

endloop
endfacet
facet normal -0.2412756234 0.8217092156 -0.5163140297
outer loop
vertex -3.298672915 5.132834911 -4.86571455
vertex 0 7.031160831 -3.386028767
vertex 0 6.101412773 -4.86571455

endloop
endfacet
facet normal 0.2032898217 0.6923414469 -0.6923414469
outer loop
vertex 0 6.101412773 -4.86571455
vertex 3.298672915 5.132834911 -4.86571455
vertex 0 4.86571455 -6.101412773

endloop
endfacet
facet normal 0.2032898366 0.6923413873 -0.6923414469
outer loop
vertex 0 4.86571455 -6.101412773
vertex 3.298672915 5.132834911 -4.86571455
vertex 2.63060379 4.093299389 -6.101412773

endloop
endfacet
facet normal 0.5453262925 0.4725278616 -0.6923414469
outer loop
vertex 3.298672915 5.132834911 -4.86571455
vertex 5.550040245 2.534618378 -4.86571455
vertex 2.63060379 4.093299389 -6.101412773

endloop
endfacet
facet normal 0.5453262925 0.4725279212 -0.6923413873
outer loop
vertex 2.63060379 4.093299389 -6.101412773
vertex 5.550040245 2.534618378 -4.86571455
vertex 4.426009655 2.021290779 -6.101412773

endloop
endfacet
facet normal 0.7142255306 0.1026901007 -0.6923414469
outer loop
vertex 5.550040245 2.534618378 -4.86571455
vertex 6.039309025 -0.8683215976 -4.86571455
vertex 4.426009655 2.021290779 -6.101412773

endloop
endfacet
facet normal 0.7142255306 0.1026900485 -0.6923414469
outer loop
vertex 4.426009655 2.021290779 -6.101412773
vertex 6.039309025 -0.8683215976 -4.86571455
vertex 4.816188335 -0.6924633384 -6.101412773

endloop
endfacet
facet normal 0.6563631892 -0.2997509837 -0.6923415065
outer loop
vertex 6.039309025 -0.8683215976 -4.86571455
vertex 4.611140251 -3.995575666 -4.86571455
vertex 4.816188335 -0.6924633384 -6.101412773

endloop
endfacet
facet normal 0.6563631296 -0.2997509539 -0.6923414469
outer loop
vertex 4.816188335 -0.6924633384 -6.101412773
vertex 4.611140251 -3.995575666 -4.86571455
vertex 3.677261591 -3.186365366 -6.101412773

endloop
endfacet
facet normal 0.3901102543 -0.6070233583 -0.6923415661
outer loop
vertex 4.611140251 -3.995575666 -4.86571455
vertex 1.718966603 -5.854262829 -4.86571455
vertex 3.677261591 -3.186365366 -6.101412773

endloop
endfacet
facet normal 0.3901101351 -0.6070232391 -0.6923415065
outer loop
vertex 3.677261591 -3.186365366 -6.101412773
vertex 1.718966603 -5.854262829 -4.86571455
vertex 1.370830178 -4.668618679 -6.101412773

endloop
endfacet
facet normal 0 -0.721570015 -0.6923415661
outer loop
vertex 1.718966603 -5.854262829 -4.86571455
vertex -1.718966603 -5.854262829 -4.86571455
vertex 1.370830178 -4.668618679 -6.101412773

endloop
endfacet
facet normal 0 -0.7215699553 -0.6923415065
outer loop
vertex 1.370830178 -4.668618679 -6.101412773
vertex -1.718966603 -5.854262829 -4.86571455
vertex -1.370830178 -4.668618679 -6.101412773

endloop
endfacet
facet normal -0.3901102543 -0.6070233583 -0.6923415661
outer loop
vertex -1.718966603 -5.854262829 -4.86571455
vertex -4.611140251 -3.995575666 -4.86571455
vertex -1.370830178 -4.668618679 -6.101412773

endloop
endfacet
facet normal -0.3901101351 -0.6070232987 -0.6923414469
outer loop
vertex -1.370830178 -4.668618679 -6.101412773
vertex -4.611140251 -3.995575666 -4.86571455
vertex -3.677261591 -3.186365366 -6.101412773

endloop
endfacet
facet normal -0.6563631892 -0.2997509837 -0.6923414469
outer loop
vertex -4.611140251 -3.995575666 -4.86571455
vertex -6.039309025 -0.8683215976 -4.86571455
vertex -3.677261591 -3.186365366 -6.101412773

endloop
endfacet
facet normal -0.6563632488 -0.2997509837 -0.6923414469
outer loop
vertex -3.677261591 -3.186365366 -6.101412773
vertex -6.039309025 -0.8683215976 -4.86571455
vertex -4.816188335 -0.6924633384 -6.101412773

endloop
endfacet
facet normal -0.7142255306 0.1026901007 -0.6923414469
outer loop
vertex -6.039309025 -0.8683215976 -4.86571455
vertex -5.550040245 2.534618378 -4.86571455
vertex -4.816188335 -0.6924633384 -6.101412773

endloop
endfacet
facet normal -0.7142255902 0.1026900634 -0.6923414469
outer loop
vertex -4.816188335 -0.6924633384 -6.101412773
vertex -5.550040245 2.534618378 -4.86571455
vertex -4.426009655 2.021290779 -6.101412773

endloop
endfacet
facet normal -0.5453262925 0.4725278616 -0.6923414469
outer loop
vertex -5.550040245 2.534618378 -4.86571455
vertex -3.298672915 5.132834911 -4.86571455
vertex -4.426009655 2.021290779 -6.101412773

endloop
endfacet
facet normal -0.5453261137 0.4725278616 -0.6923415065
outer loop
vertex -4.426009655 2.021290779 -6.101412773
vertex -3.298672915 5.132834911 -4.86571455
vertex -2.63060379 4.093299389 -6.101412773

endloop
endfacet
facet normal -0.2032898217 0.6923414469 -0.6923415065
outer loop
vertex -3.298672915 5.132834911 -4.86571455
vertex 0 6.101412773 -4.86571455
vertex -2.63060379 4.093299389 -6.101412773

endloop
endfacet
facet normal -0.2032898366 0.6923414469 -0.6923414469
outer loop
vertex -2.63060379 4.093299389 -6.101412773
vertex 0 6.101412773 -4.86571455
vertex 0 4.86571455 -6.101412773

endloop
endfacet
facet normal 0.1543467343 0.5256565809 -0.8365777135
outer loop
vertex 0 4.86571455 -6.101412773
vertex 2.63060379 4.093299389 -6.101412773
vertex 0 3.386028767 -7.031160831

endloop
endfacet
facet normal 0.1543467194 0.5256565809 -0.8365777135
outer loop
vertex 0 3.386028767 -7.031160831
vertex 2.63060379 4.093299389 -6.101412773
vertex 1.830625296 2.848508596 -7.031160831

endloop
endfacet
facet normal 0.4140360653 0.3587643504 -0.8365777135
outer loop
vertex 2.63060379 4.093299389 -6.101412773
vertex 4.426009655 2.021290779 -6.101412773
vertex 1.830625296 2.848508596 -7.031160831

endloop
endfacet
facet normal 0.4140360653 0.358764261 -0.8365777135
outer loop
vertex 1.830625296 2.848508596 -7.031160831
vertex 4.426009655 2.021290779 -6.101412773
vertex 3.080039978 1.406607151 -7.031160831

endloop
endfacet
facet normal 0.5422719717 0.07796689123 -0.8365777731
outer loop
vertex 4.426009655 2.021290779 -6.101412773
vertex 4.816188335 -0.6924633384 -6.101412773
vertex 3.080039978 1.406607151 -7.031160831

endloop
endfacet
facet normal 0.5422719717 0.07796692848 -0.8365777135
outer loop
vertex 3.080039978 1.406607151 -7.031160831
vertex 4.816188335 -0.6924633384 -6.101412773
vertex 3.351563692 -0.4818821251 -7.031160831

endloop
endfacet
facet normal 0.4983403385 -0.2275843769 -0.8365777731
outer loop
vertex 4.816188335 -0.6924633384 -6.101412773
vertex 3.677261591 -3.186365366 -6.101412773
vertex 3.351563692 -0.4818821251 -7.031160831

endloop
endfacet
facet normal 0.4983402491 -0.227584362 -0.8365777135
outer loop
vertex 3.351563692 -0.4818821251 -7.031160831
vertex 3.677261591 -3.186365366 -6.101412773
vertex 2.558989763 -2.217377186 -7.031160831

endloop
endfacet
facet normal 0.2961890996 -0.4608792961 -0.8365777135
outer loop
vertex 3.677261591 -3.186365366 -6.101412773
vertex 1.370830178 -4.668618679 -6.101412773
vertex 2.558989763 -2.217377186 -7.031160831

endloop
endfacet
facet normal 0.2961890697 -0.4608792961 -0.8365777135
outer loop
vertex 2.558989763 -2.217377186 -7.031160831
vertex 1.370830178 -4.668618679 -6.101412773
vertex 0.9539545178 -3.248870611 -7.031160831

endloop
endfacet
facet normal 0 -0.5478482842 -0.8365777135
outer loop
vertex 1.370830178 -4.668618679 -6.101412773
vertex -1.370830178 -4.668618679 -6.101412773
vertex 0.9539545178 -3.248870611 -7.031160831

endloop
endfacet
facet normal 0 -0.5478482842 -0.8365777135
outer loop
vertex 0.9539545178 -3.248870611 -7.031160831
vertex -1.370830178 -4.668618679 -6.101412773
vertex -0.9539545178 -3.248870611 -7.031160831

endloop
endfacet
facet normal -0.2961890996 -0.4608792961 -0.8365777731
outer loop
vertex -1.370830178 -4.668618679 -6.101412773
vertex -3.677261591 -3.186365366 -6.101412773
vertex -0.9539545178 -3.248870611 -7.031160831

endloop
endfacet
facet normal -0.2961890996 -0.4608792961 -0.8365777135
outer loop
vertex -0.9539545178 -3.248870611 -7.031160831
vertex -3.677261591 -3.186365366 -6.101412773
vertex -2.558989763 -2.217377186 -7.031160831

endloop
endfacet
facet normal -0.4983403385 -0.2275843769 -0.8365777135
outer loop
vertex -3.677261591 -3.186365366 -6.101412773
vertex -4.816188335 -0.6924633384 -6.101412773
vertex -2.558989763 -2.217377186 -7.031160831

endloop
endfacet
facet normal -0.4983403087 -0.2275843471 -0.8365777135
outer loop
vertex -2.558989763 -2.217377186 -7.031160831
vertex -4.816188335 -0.6924633384 -6.101412773
vertex -3.351563692 -0.4818821251 -7.031160831

endloop
endfacet
facet normal -0.5422719717 0.07796689123 -0.8365777731
outer loop
vertex -4.816188335 -0.6924633384 -6.101412773
vertex -4.426009655 2.021290779 -6.101412773
vertex -3.351563692 -0.4818821251 -7.031160831

endloop
endfacet
facet normal -0.5422718525 0.07796692103 -0.8365777135
outer loop
vertex -3.351563692 -0.4818821251 -7.031160831
vertex -4.426009655 2.021290779 -6.101412773
vertex -3.080039978 1.406607151 -7.031160831

endloop
endfacet
facet normal -0.4140360653 0.3587643504 -0.8365777135
outer loop
vertex -4.426009655 2.021290779 -6.101412773
vertex -2.63060379 4.093299389 -6.101412773
vertex -3.080039978 1.406607151 -7.031160831

endloop
endfacet
facet normal -0.4140361249 0.3587643206 -0.8365777135
outer loop
vertex -3.080039978 1.406607151 -7.031160831
vertex -2.63060379 4.093299389 -6.101412773
vertex -1.830625296 2.848508596 -7.031160831

endloop
endfacet
facet normal -0.1543467343 0.5256565809 -0.8365776539
outer loop
vertex -2.63060379 4.093299389 -6.101412773
vertex 0 4.86571455 -6.101412773
vertex -1.830625296 2.848508596 -7.031160831

endloop
endfacet
facet normal -0.1543467194 0.5256565213 -0.8365777135
outer loop
vertex -1.830625296 2.848508596 -7.031160831
vertex 0 4.86571455 -6.101412773
vertex 0 3.386028767 -7.031160831

endloop
endfacet
facet normal 0.09652587771 0.3287368715 -0.9394758344
outer loop
vertex 0 3.386028767 -7.031160831
vertex 1.830625296 2.848508596 -7.031160831
vertex 0 1.736553311 -7.608337402

endloop
endfacet
facet normal 0.09652587026 0.3287368715 -0.9394757748
outer loop
vertex 0 1.736553311 -7.608337402
vertex 1.830625296 2.848508596 -7.031160831
vertex 0.9388515949 1.460881591 -7.608337402

endloop
endfacet
facet normal 0.258931309 0.2243652493 -0.9394757748
outer loop
vertex 1.830625296 2.848508596 -7.031160831
vertex 3.080039978 1.406607151 -7.031160831
vertex 0.9388515949 1.460881591 -7.608337402

endloop
endfacet
facet normal 0.258931309 0.224365294 -0.9394757748
outer loop
vertex 0.9388515949 1.460881591 -7.608337402
vertex 3.080039978 1.406607151 -7.031160831
vertex 1.579624534 0.7213903069 -7.608337402

endloop
endfacet
facet normal 0.339127928 0.04875922948 -0.9394757748
outer loop
vertex 3.080039978 1.406607151 -7.031160831
vertex 3.351563692 -0.4818821251 -7.031160831
vertex 1.579624534 0.7213903069 -7.608337402

endloop
endfacet
facet normal 0.339127928 0.04875922948 -0.9394758344
outer loop
vertex 1.579624534 0.7213903069 -7.608337402
vertex 3.351563692 -0.4818821251 -7.031160831
vertex 1.718877792 -0.2471373081 -7.608337402

endloop
endfacet
facet normal 0.3116537929 -0.1423275024 -0.9394757748
outer loop
vertex 3.351563692 -0.4818821251 -7.031160831
vertex 2.558989763 -2.217377186 -7.031160831
vertex 1.718877792 -0.2471373081 -7.608337402

endloop
endfacet
facet normal 0.3116537631 -0.1423275173 -0.9394757748
outer loop
vertex 1.718877792 -0.2471373081 -7.608337402
vertex 2.558989763 -2.217377186 -7.031160831
vertex 1.312399507 -1.137200594 -7.608337402

endloop
endfacet
facet normal 0.1852317601 -0.2882262766 -0.9394757748
outer loop
vertex 2.558989763 -2.217377186 -7.031160831
vertex 0.9539545178 -3.248870611 -7.031160831
vertex 1.312399507 -1.137200594 -7.608337402

endloop
endfacet
facet normal 0.1852318048 -0.2882263064 -0.9394757748
outer loop
vertex 1.312399507 -1.137200594 -7.608337402
vertex 0.9539545178 -3.248870611 -7.031160831
vertex 0.4892436266 -1.666210771 -7.608337402

endloop
endfacet
facet normal 0 -0.3426152468 -0.9394757748
outer loop
vertex 0.9539545178 -3.248870611 -7.031160831
vertex -0.9539545178 -3.248870611 -7.031160831
vertex 0.4892436266 -1.666210771 -7.608337402

endloop
endfacet
facet normal 0 -0.3426152766 -0.9394758344
outer loop
vertex 0.4892436266 -1.666210771 -7.608337402
vertex -0.9539545178 -3.248870611 -7.031160831
vertex -0.4892436266 -1.666210771 -7.608337402

endloop
endfacet
facet normal -0.1852317899 -0.2882263362 -0.9394757748
outer loop
vertex -0.9539545178 -3.248870611 -7.031160831
vertex -2.558989763 -2.217377186 -7.031160831
vertex -0.4892436266 -1.666210771 -7.608337402

endloop
endfacet
facet normal -0.1852317899 -0.2882262468 -0.9394757748
outer loop
vertex -0.4892436266 -1.666210771 -7.608337402
vertex -2.558989763 -2.217377186 -7.031160831
vertex -1.312399507 -1.137200594 -7.608337402

endloop
endfacet
facet normal -0.3116537929 -0.1423275024 -0.9394757748
outer loop
vertex -2.558989763 -2.217377186 -7.031160831
vertex -3.351563692 -0.4818821251 -7.031160831
vertex -1.312399507 -1.137200594 -7.608337402

endloop
endfacet
facet normal -0.3116537929 -0.1423274726 -0.9394758344
outer loop
vertex -1.312399507 -1.137200594 -7.608337402
vertex -3.351563692 -0.4818821251 -7.031160831
vertex -1.718877792 -0.2471373081 -7.608337402

endloop
endfacet
facet normal -0.339127928 0.04875922948 -0.939475894
outer loop
vertex -3.351563692 -0.4818821251 -7.031160831
vertex -3.080039978 1.406607151 -7.031160831
vertex -1.718877792 -0.2471373081 -7.608337402

endloop
endfacet
facet normal -0.3391279578 0.04875923321 -0.9394758344
outer loop
vertex -1.718877792 -0.2471373081 -7.608337402
vertex -3.080039978 1.406607151 -7.031160831
vertex -1.579624534 0.7213903069 -7.608337402

endloop
endfacet
facet normal -0.258931309 0.2243652493 -0.9394757748
outer loop
vertex -3.080039978 1.406607151 -7.031160831
vertex -1.830625296 2.848508596 -7.031160831
vertex -1.579624534 0.7213903069 -7.608337402

endloop
endfacet
facet normal -0.258931309 0.224365294 -0.9394758344
outer loop
vertex -1.579624534 0.7213903069 -7.608337402
vertex -1.830625296 2.848508596 -7.031160831
vertex -0.9388515949 1.460881591 -7.608337402

endloop
endfacet
facet normal -0.09652587771 0.3287368715 -0.9394757748
outer loop
vertex -1.830625296 2.848508596 -7.031160831
vertex 0 3.386028767 -7.031160831
vertex -0.9388515949 1.460881591 -7.608337402

endloop
endfacet
facet normal -0.09652583301 0.3287369013 -0.9394758344
outer loop
vertex -0.9388515949 1.460881591 -7.608337402
vertex 0 3.386028767 -7.031160831
vertex 0 1.736553311 -7.608337402

endloop
endfacet
facet normal 0.03285797685 0.1119039878 -0.993175745
outer loop
vertex -2.340825142e-31 9.557143683e-16 -7.803999901
vertex 0 1.736553311 -7.608337402
vertex 0.9388515949 1.460881591 -7.608337402

endloop
endfacet
facet normal 0.08814173937 0.0763752684 -0.9931756854
outer loop
vertex -2.340825142e-31 9.557143683e-16 -7.803999901
vertex 0.9388515949 1.460881591 -7.608337402
vertex 1.579624534 0.7213903069 -7.608337402

endloop
endfacet
facet normal 0.1154411361 0.01659793034 -0.9931756854
outer loop
vertex -2.340825142e-31 9.557143683e-16 -7.803999901
vertex 1.579624534 0.7213903069 -7.608337402
vertex 1.718877792 -0.2471373081 -7.608337402

endloop
endfacet
facet normal 0.1060887799 -0.04844912514 -0.9931756854
outer loop
vertex -2.340825142e-31 9.557143683e-16 -7.803999901
vertex 1.718877792 -0.2471373081 -7.608337402
vertex 1.312399507 -1.137200594 -7.608337402

endloop
endfacet
facet normal 0.06305398047 -0.09811390936 -0.9931755662
outer loop
vertex -2.340825142e-31 9.557143683e-16 -7.803999901
vertex 1.312399507 -1.137200594 -7.608337402
vertex 0.4892436266 -1.666210771 -7.608337402

endloop
endfacet
facet normal -0 -0.116628252 -0.9931756854
outer loop
vertex -2.340825142e-31 9.557143683e-16 -7.803999901
vertex 0.4892436266 -1.666210771 -7.608337402
vertex -0.4892436266 -1.666210771 -7.608337402

endloop
endfacet
facet normal -0.06305398047 -0.09811390936 -0.9931755662
outer loop
vertex -2.340825142e-31 9.557143683e-16 -7.803999901
vertex -0.4892436266 -1.666210771 -7.608337402
vertex -1.312399507 -1.137200594 -7.608337402

endloop
endfacet
facet normal -0.1060887799 -0.04844912514 -0.9931756854
outer loop
vertex -2.340825142e-31 9.557143683e-16 -7.803999901
vertex -1.312399507 -1.137200594 -7.608337402
vertex -1.718877792 -0.2471373081 -7.608337402

endloop
endfacet
facet normal -0.1154411361 0.01659793034 -0.9931756854
outer loop
vertex -2.340825142e-31 9.557143683e-16 -7.803999901
vertex -1.718877792 -0.2471373081 -7.608337402
vertex -1.579624534 0.7213903069 -7.608337402

endloop
endfacet
facet normal -0.08814173937 0.0763752684 -0.9931756854
outer loop
vertex -2.340825142e-31 9.557143683e-16 -7.803999901
vertex -1.579624534 0.7213903069 -7.608337402
vertex -0.9388515949 1.460881591 -7.608337402

endloop
endfacet
facet normal -0.03285797685 0.1119039878 -0.993175745
outer loop
vertex -2.340825142e-31 9.557143683e-16 -7.803999901
vertex -0.9388515949 1.460881591 -7.608337402
vertex 0 1.736553311 -7.608337402

endloop
endfacet
endsolid
